<?xml version="1.0" encoding="UTF-8"?><svg id="electrictower" xmlns="http://www.w3.org/2000/svg" viewBox="0 0 36.79 40"><defs><style>.cls-1{stroke-width:0px;}</style></defs><path fill="black" id="Union_2" class="cls-1" d="m28.06,40l-.44-.38-9.23-8.21-9.68,8.6h-4.67l2.95-10.32,1.29-6.09H2.06l-2.06-4.12,10.02-6.68.53-3.56h-5.42l-2.1-4.2L11.83,0h13.13l.35.2,8.44,4.83-2.1,4.2h-5.42l.53,3.56,10.02,6.67-2.06,4.12h-6.16l4.1,16.41h-4.61Zm-7.35-10.65l7.88,7-2.87-11.45-5.01,4.45Zm-10.73,1.08v.05s-1.66,5.77-1.66,5.77l7.76-6.9-4.94-4.39-1.16,5.47Zm8.41-3.14l4.15-3.7h-8.31l4.16,3.7Zm14.41-6.78l-5.42-3.61.54,3.61h4.88Zm-20.83,0h12.84l-.77-5.13h-11.3l-.77,5.13Zm-7.99,0h4.88l.54-3.61-5.42,3.61Zm19.6-8.2l-.46-3.08h-9.45l-.46,3.08h10.38Zm5.94-6.15l-4.1-2.35.35,2.35h3.75Zm-6.86,0l-.46-3.08h-7.61l-.46,3.08h8.53Zm-15.4,0h3.76l.35-2.35-4.11,2.35Z"/></svg>